<svg width="87" height="89" viewBox="0 0 87 89" fill="none" xmlns="http://www.w3.org/2000/svg">
<path d="M85.9098 44.0426C85.9098 68.0998 66.7904 87.5851 43.2261 87.5851C19.6618 87.5851 0.542442 68.0998 0.542442 44.0426C0.542442 19.9853 19.6618 0.5 43.2261 0.5C66.7904 0.5 85.9098 19.9853 85.9098 44.0426Z" stroke="#FCAD15"/>
<path d="M25.7695 38.2695C24.5326 39.5065 23.0677 40.125 21.375 40.125C19.6823 40.125 18.2174 39.5065 16.9805 38.2695C15.7435 37.0326 15.125 35.5677 15.125 33.875C15.125 32.1823 15.7435 30.7174 16.9805 29.4805C18.2174 28.2435 19.6823 27.625 21.375 27.625C23.0677 27.625 24.5326 28.2435 25.7695 29.4805C27.0065 30.7174 27.625 32.1823 27.625 33.875C27.625 35.5677 27.0065 37.0326 25.7695 38.2695ZM69.5195 38.2695C68.2826 39.5065 66.8177 40.125 65.125 40.125C63.4323 40.125 61.9674 39.5065 60.7305 38.2695C59.4935 37.0326 58.875 35.5677 58.875 33.875C58.875 32.1823 59.4935 30.7174 60.7305 29.4805C61.9674 28.2435 63.4323 27.625 65.125 27.625C66.8177 27.625 68.2826 28.2435 69.5195 29.4805C70.7565 30.7174 71.375 32.1823 71.375 33.875C71.375 35.5677 70.7565 37.0326 69.5195 38.2695ZM68.25 43.25C69.9427 43.25 71.4076 43.8685 72.6445 45.1055C73.8815 46.3424 74.5 47.8073 74.5 49.5V52.625C74.5 53.4714 74.1745 54.2201 73.5234 54.8711C72.9375 55.457 72.2214 55.75 71.375 55.75H64.9297C64.7344 54.2526 64.3112 52.8203 63.6602 51.4531C63.0091 50.0859 62.1628 48.8815 61.1211 47.8398C60.0794 46.7331 58.9076 45.8216 57.6055 45.1055C58.8424 43.8685 60.3073 43.25 62 43.25H68.25ZM50.9648 40.0273C48.8164 42.1758 46.2448 43.25 43.25 43.25C40.2552 43.25 37.6836 42.1758 35.5352 40.0273C33.3867 37.8789 32.3125 35.3073 32.3125 32.3125C32.3125 29.3177 33.3867 26.7461 35.5352 24.5977C37.6836 22.4492 40.2552 21.375 43.25 21.375C46.2448 21.375 48.8164 22.4492 50.9648 24.5977C53.1133 26.7461 54.1875 29.3177 54.1875 32.3125C54.1875 35.3073 53.1133 37.8789 50.9648 40.0273ZM50.7695 46.375C53.8945 46.375 56.5312 47.4818 58.6797 49.6953C60.8932 51.8438 62 54.4805 62 57.6055V60.4375C62 61.7396 61.5443 62.8464 60.6328 63.7578C59.7214 64.6693 58.6146 65.125 57.3125 65.125H29.1875C27.8854 65.125 26.7786 64.6693 25.8672 63.7578C24.9557 62.8464 24.5 61.7396 24.5 60.4375V57.6055C24.5 54.4805 25.5742 51.8438 27.7227 49.6953C29.9362 47.4818 32.6055 46.375 35.7305 46.375H36.6094C38.7578 47.4167 40.9714 47.9375 43.25 47.9375C45.5286 47.9375 47.7422 47.4167 49.8906 46.375H50.7695ZM28.8945 45.1055C26.9414 46.1471 25.3138 47.612 24.0117 49.5C22.7096 51.388 21.8958 53.4714 21.5703 55.75H15.125C14.2786 55.75 13.5299 55.457 12.8789 54.8711C12.293 54.2201 12 53.4714 12 52.625V49.5C12 47.8073 12.6185 46.3424 13.8555 45.1055C15.0924 43.8685 16.5573 43.25 18.25 43.25H24.5C26.1927 43.25 27.6576 43.8685 28.8945 45.1055Z" fill="#FCAD15"/>
</svg>
