<svg width="87" height="89" viewBox="0 0 87 89" fill="none" xmlns="http://www.w3.org/2000/svg">
<path d="M86.4606 44.0426C86.4606 68.0998 67.3412 87.5851 43.7769 87.5851C20.2126 87.5851 1.09323 68.0998 1.09323 44.0426C1.09323 19.9853 20.2126 0.5 43.7769 0.5C67.3412 0.5 86.4606 19.9853 86.4606 44.0426Z" stroke="#FCAD15"/>
<path d="M42.4414 32.7031C42.7018 32.5729 42.9622 32.5078 43.2227 32.5078C43.4831 32.5078 43.7435 32.5729 44.0039 32.7031L61.9727 47.5469V63.5625C61.9727 64.0182 61.8099 64.3763 61.4844 64.6367C61.224 64.9622 60.8659 65.125 60.4102 65.125H49.4727C49.0169 65.125 48.6263 64.9622 48.3008 64.6367C48.0404 64.3112 47.9102 63.9531 47.9102 63.5625V54.1875C47.9102 53.9271 47.8451 53.6667 47.7148 53.4062C47.5846 53.1458 47.3893 52.9505 47.1289 52.8203C46.8685 52.6901 46.6081 52.625 46.3477 52.625H40.0977C39.6419 52.625 39.2513 52.7878 38.9258 53.1133C38.6654 53.3737 38.5352 53.7318 38.5352 54.1875V63.5625C38.5352 63.9531 38.3724 64.3112 38.0469 64.6367C37.7865 64.9622 37.4284 65.125 36.9727 65.125H26.0352C25.5794 65.125 25.1888 64.9622 24.8633 64.6367C24.6029 64.3763 24.4727 64.0182 24.4727 63.5625V47.5469L42.4414 32.7031ZM70.957 42.7617C71.2174 43.0221 71.3477 43.3477 71.3477 43.7383C71.3477 43.9987 71.25 44.2266 71.0547 44.4219L68.6133 47.4492C68.3529 47.7747 68.0599 47.9375 67.7344 47.9375C67.4089 47.9375 67.1484 47.8398 66.9531 47.6445L44.0039 28.6992C43.7435 28.569 43.4831 28.5039 43.2227 28.5039C42.9622 28.5039 42.7018 28.569 42.4414 28.6992L19.4922 47.6445C19.2969 47.8398 19.069 47.9375 18.8086 47.9375C18.418 47.9375 18.0924 47.7747 17.832 47.4492L15.3906 44.4219C15.1953 44.2266 15.0977 43.9987 15.0977 43.7383C15.0977 43.3477 15.2279 43.0221 15.4883 42.7617L40.1953 22.4492C41.1068 21.7331 42.1159 21.375 43.2227 21.375C44.3294 21.375 45.306 21.7331 46.1523 22.4492L54.9414 29.6758V22.5469C54.9414 22.2214 55.0391 21.9609 55.2344 21.7656C55.4948 21.5052 55.7878 21.375 56.1133 21.375H61.582C61.9076 21.375 62.168 21.5052 62.3633 21.7656C62.6237 21.9609 62.7539 22.2214 62.7539 22.5469V36.1211L70.957 42.7617Z" fill="#FCAD15"/>
</svg>
