<svg width="87" height="89" viewBox="0 0 87 89" fill="none" xmlns="http://www.w3.org/2000/svg">
<path d="M85.9306 44.0426C85.9306 68.0998 66.8113 87.5851 43.247 87.5851C19.6827 87.5851 0.563293 68.0998 0.563293 44.0426C0.563293 19.9853 19.6827 0.5 43.247 0.5C66.8113 0.5 85.9306 19.9853 85.9306 44.0426Z" stroke="#FCAD15"/>
<path d="M57.3555 52.918C53.3841 56.8893 48.599 58.875 43 58.875C37.401 58.875 32.6159 56.8893 28.6445 52.918C24.6732 48.9466 22.6875 44.1615 22.6875 38.5625C22.6875 32.9635 24.6732 28.1784 28.6445 24.207C32.6159 20.2357 37.401 18.25 43 18.25C48.599 18.25 53.3841 20.2357 57.3555 24.207C61.3268 28.1784 63.3125 32.9635 63.3125 38.5625C63.3125 44.1615 61.3268 48.9466 57.3555 52.918ZM40.8516 27.7227C39.224 27.7878 37.8568 28.4062 36.75 29.5781C35.6432 30.75 35.0898 32.1823 35.0898 33.875C35.0898 35.2422 35.4805 36.4792 36.2617 37.5859C37.043 38.6276 38.0521 39.3438 39.2891 39.7344L45.4414 41.5898C46.2227 41.7852 46.6133 42.3385 46.6133 43.25C46.6133 43.7708 46.4505 44.194 46.125 44.5195C45.7995 44.8451 45.4089 45.0078 44.9531 45.0078H41.2422C40.5911 45.0078 40.0052 44.8451 39.4844 44.5195C38.9635 44.194 38.5078 44.2266 38.1172 44.6172L36.5547 46.1797C36.2943 46.4401 36.1641 46.7331 36.1641 47.0586C36.1641 47.3841 36.3268 47.6445 36.6523 47.8398C37.8893 48.7513 39.2891 49.2396 40.8516 49.3047V50.9648C40.8516 51.4206 40.9818 51.8112 41.2422 52.1367C41.5677 52.4622 41.9583 52.625 42.4141 52.625H43.4883C43.944 52.625 44.3346 52.4622 44.6602 52.1367C44.9857 51.8112 45.1484 51.4206 45.1484 50.9648V49.4023C46.776 49.3372 48.1432 48.7188 49.25 47.5469C50.3568 46.375 50.9102 44.9427 50.9102 43.25C50.9102 41.8828 50.5195 40.6784 49.7383 39.6367C48.957 38.5299 47.9154 37.7812 46.6133 37.3906L40.5586 35.5352C39.7773 35.3398 39.3867 34.7865 39.3867 33.875C39.3867 33.3542 39.5495 32.931 39.875 32.6055C40.2005 32.2799 40.5586 32.1172 40.9492 32.1172H44.7578C45.4089 32.1172 45.9948 32.2799 46.5156 32.6055C47.0365 32.931 47.4922 32.8984 47.8828 32.5078L49.4453 30.9453C49.7057 30.6849 49.8034 30.3919 49.7383 30.0664C49.7383 29.7409 49.6081 29.4805 49.3477 29.2852C48.1107 28.3737 46.7109 27.8854 45.1484 27.8203V26.1602C45.1484 25.7044 44.9857 25.3138 44.6602 24.9883C44.3346 24.6628 43.9766 24.5 43.5859 24.5H42.4141C42.1536 24.5 41.8932 24.5651 41.6328 24.6953C41.3724 24.8255 41.1771 25.0208 41.0469 25.2812C40.9167 25.5417 40.8516 25.8346 40.8516 26.1602V27.7227ZM64.875 52.625C65.7214 52.625 66.4375 52.9505 67.0234 53.6016C67.6745 54.1875 68 54.9036 68 55.75V65.125C68 65.9714 67.6745 66.6875 67.0234 67.2734C66.4375 67.9245 65.7214 68.25 64.875 68.25H21.125C20.2786 68.25 19.5299 67.9245 18.8789 67.2734C18.293 66.6875 18 65.9714 18 65.125V55.75C18 54.9036 18.293 54.1875 18.8789 53.6016C19.5299 52.9505 20.2786 52.625 21.125 52.625H24.25C26.2031 55.1641 28.5794 57.2474 31.3789 58.875H25.2266C24.5755 58.875 24.25 59.1354 24.25 59.6562V61.2188C24.25 61.7396 24.5755 62 25.2266 62H60.7734C61.4245 62 61.75 61.7396 61.75 61.2188V59.6562C61.75 59.1354 61.4245 58.875 60.7734 58.875H54.5234C57.388 57.2474 59.7969 55.1641 61.75 52.625H64.875Z" fill="#FCAD15"/>
</svg>
