<svg width="87" height="89" viewBox="0 0 87 89" fill="none" xmlns="http://www.w3.org/2000/svg">
<path d="M66.9258 36.4375C67.3164 36.4375 67.6094 36.6003 67.8047 36.9258C68.0651 37.1862 68.1628 37.5117 68.0977 37.9023L67.5117 40.2461C67.3164 40.832 66.9258 41.125 66.3398 41.125H64.3867C65.819 42.362 66.5352 43.9245 66.5352 45.8125V50.5C66.5352 52.0625 66.0143 53.4297 64.9727 54.6016V59.875C64.9727 60.7214 64.6471 61.4701 63.9961 62.1211C63.4102 62.707 62.694 63 61.8477 63H58.7227C57.8763 63 57.1276 62.707 56.4766 62.1211C55.8906 61.4701 55.5977 60.7214 55.5977 59.875V56.75H30.5977V59.875C30.5977 60.7214 30.2721 61.4701 29.6211 62.1211C29.0352 62.707 28.319 63 27.4727 63H24.3477C23.5013 63 22.7526 62.707 22.1016 62.1211C21.5156 61.4701 21.2227 60.7214 21.2227 59.875V54.6016C20.181 53.4297 19.6602 52.0625 19.6602 50.5V45.8125C19.6602 43.9245 20.3763 42.362 21.8086 41.125H19.8555C19.2695 41.125 18.8789 40.832 18.6836 40.2461L18.0977 37.9023C18.0326 37.5117 18.0977 37.1862 18.293 36.9258C18.5534 36.6003 18.8789 36.4375 19.2695 36.4375H25.1289L26.7891 32.3359C27.1797 31.3594 27.7005 30.4479 28.3516 29.6016C29.0677 28.6901 29.849 27.9414 30.6953 27.3555C31.6068 26.7695 32.5833 26.3138 33.625 25.9883C34.6667 25.6628 35.7409 25.5 36.8477 25.5H49.3477C51.5612 25.5 53.5794 26.1185 55.4023 27.3555C57.2904 28.5924 58.625 30.2526 59.4062 32.3359L61.0664 36.4375H66.9258ZM32.5508 34.6797L30.5977 39.5625H55.5977L53.6445 34.6797C53.319 33.8333 52.7331 33.1497 51.8867 32.6289C51.1055 32.043 50.2591 31.75 49.3477 31.75H36.8477C35.9362 31.75 35.0573 32.043 34.2109 32.6289C33.4297 33.1497 32.8763 33.8333 32.5508 34.6797ZM27.4727 50.5C27.6029 50.5 27.8633 50.5 28.2539 50.5C28.7096 50.5 29.0352 50.5 29.2305 50.5C29.4258 50.5 29.6862 50.5 30.0117 50.5C30.4023 50.4349 30.6953 50.3698 30.8906 50.3047C31.0859 50.2396 31.2812 50.1745 31.4766 50.1094C31.737 49.9792 31.8997 49.8164 31.9648 49.6211C32.0951 49.4258 32.1602 49.1979 32.1602 48.9375C32.1602 47.9609 31.6068 46.9518 30.5 45.9102C29.3932 44.8034 28.3841 44.25 27.4727 44.25C26.5612 44.25 25.8125 44.543 25.2266 45.1289C24.6406 45.7148 24.3477 46.4635 24.3477 47.375C24.3477 48.2865 24.6406 49.0352 25.2266 49.6211C25.8125 50.207 26.5612 50.5 27.4727 50.5ZM58.7227 50.5C59.6341 50.5 60.3828 50.207 60.9688 49.6211C61.5547 49.0352 61.8477 48.2865 61.8477 47.375C61.8477 46.4635 61.5547 45.7148 60.9688 45.1289C60.3828 44.543 59.6341 44.25 58.7227 44.25C58.1367 44.25 57.4531 44.5104 56.6719 45.0312C55.9557 45.5521 55.3372 46.2031 54.8164 46.9844C54.2956 47.7005 54.0352 48.3516 54.0352 48.9375C54.0352 49.1979 54.0677 49.4258 54.1328 49.6211C54.263 49.8164 54.4258 49.9792 54.6211 50.1094C54.8815 50.1745 55.1094 50.2396 55.3047 50.3047C55.5 50.3698 55.7604 50.4349 56.0859 50.5C56.4766 50.5 56.7695 50.5 56.9648 50.5C57.1602 50.5 57.4531 50.5 57.8438 50.5C58.2995 50.5 58.5924 50.5 58.7227 50.5Z" fill="#FCAD15"/>
<path d="M86.0922 44.0426C86.0922 68.0998 66.9728 87.5851 43.4085 87.5851C19.8442 87.5851 0.724854 68.0998 0.724854 44.0426C0.724854 19.9853 19.8442 0.5 43.4085 0.5C66.9728 0.5 86.0922 19.9853 86.0922 44.0426Z" stroke="#FCAD15"/>
</svg>
