<svg width="87" height="89" viewBox="0 0 87 89" fill="none" xmlns="http://www.w3.org/2000/svg">
<path d="M85.9098 44.1383C85.9098 68.1955 66.7904 87.6808 43.2261 87.6808C19.6618 87.6808 0.542442 68.1955 0.542442 44.1383C0.542442 20.081 19.6618 0.595703 43.2261 0.595703C66.7904 0.595703 85.9098 20.081 85.9098 44.1383Z" stroke="#FCAD15"/>
<path d="M51.6641 39.6367C49.2552 42.0456 46.3255 43.25 42.875 43.25C39.4245 43.25 36.4622 42.0456 33.9883 39.6367C31.5794 37.1628 30.375 34.2005 30.375 30.75C30.375 27.2995 31.5794 24.3698 33.9883 21.9609C36.4622 19.487 39.4245 18.25 42.875 18.25C46.3255 18.25 49.2552 19.487 51.6641 21.9609C54.138 24.3698 55.375 27.2995 55.375 30.75C55.375 34.2005 54.138 37.1628 51.6641 39.6367ZM52.25 46.4727C55.7005 46.6029 58.6302 47.9375 61.0391 50.4766C63.513 53.0156 64.75 56.0104 64.75 59.4609V63.5625C64.75 64.8646 64.2943 65.9714 63.3828 66.8828C62.4714 67.7943 61.3646 68.25 60.0625 68.25H25.6875C24.3854 68.25 23.2786 67.7943 22.3672 66.8828C21.4557 65.9714 21 64.8646 21 63.5625V59.4609C21 56.0104 22.2044 53.0156 24.6133 50.4766C27.0872 47.9375 30.0495 46.6029 33.5 46.4727L38.1875 65.125L41.3125 51.8438L38.1875 46.375H47.5625L44.4375 51.8438L47.5625 65.125L52.25 46.4727Z" fill="#FCAD15"/>
</svg>
