<svg width="87" height="89" viewBox="0 0 87 89" fill="none" xmlns="http://www.w3.org/2000/svg">
<path d="M86.4606 44.1595C86.4606 68.2167 67.3412 87.702 43.7769 87.702C20.2126 87.702 1.09323 68.2167 1.09323 44.1595C1.09323 20.1023 20.2126 0.616943 43.7769 0.616943C67.3412 0.616943 86.4606 20.1023 86.4606 44.1595Z" stroke="#FCAD15"/>
<path d="M65.5078 27.4531C66.4193 27.7786 67.1354 28.332 67.6562 29.1133C68.1771 29.8945 68.4375 30.7734 68.4375 31.75C68.4375 35.8516 67.9492 39.7904 66.9727 43.5664C65.9961 47.2773 64.7591 50.5 63.2617 53.2344C61.7643 55.9036 60.0065 58.3451 57.9883 60.5586C56.0352 62.707 54.1146 64.4323 52.2266 65.7344C50.4036 67.1016 48.5807 68.1432 46.7578 68.8594C45.5859 69.3802 44.4141 69.3802 43.2422 68.8594C40.5078 67.7526 37.8711 66.0924 35.332 63.8789C32.8581 61.7305 30.5794 59.1263 28.4961 56.0664C26.4128 52.9414 24.7201 49.263 23.418 45.0312C22.181 40.7995 21.5625 36.3724 21.5625 31.75C21.5625 31.3594 21.5951 31.0013 21.6602 30.6758C21.7904 30.2852 21.9206 29.9271 22.0508 29.6016C22.2461 29.276 22.4414 28.9831 22.6367 28.7227C22.8971 28.4622 23.1576 28.2344 23.418 28.0391C23.7435 27.7786 24.1016 27.5833 24.4922 27.4531L43.2422 19.6406C43.763 19.3802 44.349 19.25 45 19.25C45.651 19.25 46.237 19.3802 46.7578 19.6406L65.5078 27.4531ZM45 62.8047C49.8828 60.3958 53.9193 56.5547 57.1094 51.2812C60.3646 46.0078 62.0573 39.8555 62.1875 32.8242L45 25.5977V62.8047Z" fill="#FCAD15"/>
</svg>
