<svg width="87" height="89" viewBox="0 0 87 89" fill="none" xmlns="http://www.w3.org/2000/svg">
<path d="M85.9306 44.1383C85.9306 68.1955 66.8113 87.6808 43.247 87.6808C19.6827 87.6808 0.563293 68.1955 0.563293 44.1383C0.563293 20.081 19.6827 0.595703 43.247 0.595703C66.8113 0.595703 85.9306 20.081 85.9306 44.1383Z" stroke="#FCAD15"/>
<path d="M37.0977 51.0625C37.0977 53.2109 35.8607 55.0664 33.3867 56.6289C30.9779 58.1263 28.0482 58.875 24.5977 58.875C21.1471 58.875 18.1849 58.1263 15.7109 56.6289C13.3021 55.0664 12.0977 53.2109 12.0977 51.0625C12.0977 51.0625 12.0977 51.0299 12.0977 50.9648C12.0977 50.444 12.2604 49.8255 12.5859 49.1094C12.9115 48.3281 14.0508 45.9844 16.0039 42.0781C17.6966 38.6927 19.1615 35.763 20.3984 33.2891C21.2448 31.5964 22.6445 30.75 24.5977 30.75C26.5508 30.75 27.9505 31.5964 28.7969 33.2891C30.099 35.8932 31.5964 38.9206 33.2891 42.3711C35.1771 46.082 36.2839 48.2956 36.6094 49.0117C36.9349 49.7279 37.0977 50.3789 37.0977 50.9648C37.0977 51.0299 37.0977 51.0625 37.0977 51.0625ZM24.5977 35.4375L17.5664 49.5H31.6289L24.5977 35.4375ZM74.5977 51.0625C74.5977 52.4948 74.0443 53.8294 72.9375 55.0664C71.8307 56.2383 70.3008 57.1823 68.3477 57.8984C66.4596 58.5495 64.3763 58.875 62.0977 58.875C58.6471 58.875 55.6849 58.1263 53.2109 56.6289C50.8021 55.0664 49.5977 53.2109 49.5977 51.0625C49.5977 51.0625 49.5977 51.0299 49.5977 50.9648C49.5977 50.444 49.7604 49.8255 50.0859 49.1094C50.4115 48.3281 51.5508 45.9844 53.5039 42.0781C53.8294 41.4271 54.0573 40.9388 54.1875 40.6133C54.3828 40.2878 54.6432 39.7995 54.9688 39.1484C55.3594 38.4323 55.6849 37.8138 55.9453 37.293C56.2057 36.7721 56.4987 36.1536 56.8242 35.4375C57.2148 34.7214 57.5729 34.0052 57.8984 33.2891C58.7448 31.5964 60.1445 30.75 62.0977 30.75C64.0508 30.75 65.4505 31.5964 66.2969 33.2891C67.599 35.8932 69.0964 38.9206 70.7891 42.3711C72.6771 46.082 73.7839 48.2956 74.1094 49.0117C74.4349 49.7279 74.5977 50.3789 74.5977 50.9648C74.5977 51.0299 74.5977 51.0625 74.5977 51.0625ZM55.0664 49.5H69.1289L62.0977 35.4375L55.0664 49.5ZM63.6602 62C64.1159 62 64.474 62.1302 64.7344 62.3906C65.0599 62.7161 65.2227 63.1068 65.2227 63.5625V66.6875C65.2227 67.1432 65.0599 67.5013 64.7344 67.7617C64.474 68.0872 64.1159 68.25 63.6602 68.25H23.0352C22.5794 68.25 22.1888 68.0872 21.8633 67.7617C21.6029 67.5013 21.4727 67.1432 21.4727 66.6875V63.5625C21.4727 63.1068 21.6029 62.7161 21.8633 62.3906C22.1888 62.1302 22.5794 62 23.0352 62H40.2227V33.1914C37.7487 32.1497 36.2513 30.2943 35.7305 27.625H23.0352C22.5794 27.625 22.1888 27.4948 21.8633 27.2344C21.6029 26.9089 21.4727 26.5182 21.4727 26.0625V22.9375C21.4727 22.4818 21.6029 22.1237 21.8633 21.8633C22.1888 21.5378 22.5794 21.375 23.0352 21.375H37.0977C38.7253 19.2917 40.8086 18.25 43.3477 18.25C45.8867 18.25 47.9701 19.2917 49.5977 21.375H63.6602C64.1159 21.375 64.474 21.5378 64.7344 21.8633C65.0599 22.1237 65.2227 22.4818 65.2227 22.9375V26.0625C65.2227 26.5182 65.0599 26.9089 64.7344 27.2344C64.474 27.4948 64.1159 27.625 63.6602 27.625H50.9648C50.444 30.2943 48.9466 32.1497 46.4727 33.1914V62H63.6602Z" fill="#FCAD15"/>
</svg>
