<svg width="87" height="89" viewBox="0 0 87 89" fill="none" xmlns="http://www.w3.org/2000/svg">
<path d="M66.3164 37.6836C66.7721 38.1393 67 38.6927 67 39.3438C67 39.9948 66.7721 40.5482 66.3164 41.0039L54.207 53.2109C53.6862 53.6667 53.1003 53.8945 52.4492 53.8945C51.8633 53.8945 51.3424 53.6667 50.8867 53.2109L48.6406 50.9648C48.1849 50.5091 47.957 49.9557 47.957 49.3047C47.957 48.6536 48.1849 48.1003 48.6406 47.6445L49.2266 47.1562L45.3203 43.25L37.4102 51.1602L37.9961 51.7461C38.582 52.332 38.875 53.0807 38.875 53.9922C38.875 54.8385 38.582 55.5547 37.9961 56.1406L26.7656 67.3711C26.1797 67.957 25.431 68.25 24.5195 68.25C23.6732 68.25 22.957 67.957 22.3711 67.3711L17.8789 62.8789C17.293 62.293 17 61.5768 17 60.7305C17 59.819 17.293 59.0703 17.8789 58.4844L29.1094 47.2539C29.6953 46.668 30.4115 46.375 31.2578 46.375C32.1693 46.375 32.918 46.668 33.5039 47.2539L34.0898 47.8398L42 39.9297L38.0938 36.0234L37.6055 36.6094C37.1497 37.0651 36.5964 37.293 35.9453 37.293C35.2943 37.293 34.7409 37.0651 34.2852 36.6094L32.0391 34.3633C31.5833 33.9076 31.3555 33.3867 31.3555 32.8008C31.3555 32.1497 31.5833 31.5638 32.0391 31.043L44.2461 18.9336C44.7018 18.4779 45.2552 18.25 45.9062 18.25C46.5573 18.25 47.1107 18.4779 47.5664 18.9336L49.7148 21.1797C50.1706 21.6354 50.3984 22.1888 50.3984 22.8398C50.3984 23.4909 50.1706 24.0443 49.7148 24.5L49.2266 24.9883L60.2617 36.0234L60.75 35.5352C61.2057 35.0794 61.7591 34.8516 62.4102 34.8516C63.0612 34.8516 63.6146 35.0794 64.0703 35.5352L66.3164 37.6836Z" fill="#FCAD15"/>
<path d="M86.0922 44.1383C86.0922 68.1955 66.9728 87.6808 43.4085 87.6808C19.8442 87.6808 0.724854 68.1955 0.724854 44.1383C0.724854 20.081 19.8442 0.595703 43.4085 0.595703C66.9728 0.595703 86.0922 20.081 86.0922 44.1383Z" stroke="#FCAD15"/>
</svg>
