<svg width="40" height="40" viewBox="0 0 40 40" fill="none" xmlns="http://www.w3.org/2000/svg">
<rect width="40" height="40" fill="#FCAD15"/>
<path d="M16.1074 15.6699C17.2142 14.5632 18.5488 14.0098 20.1113 14.0098C21.6738 14.0098 22.9922 14.5632 24.0664 15.6699C25.1732 16.7441 25.7266 18.0625 25.7266 19.625C25.7266 21.1875 25.1732 22.5221 24.0664 23.6289C22.9922 24.7031 21.6738 25.2402 20.1113 25.2402C18.5488 25.2402 17.2142 24.7031 16.1074 23.6289C15.0332 22.5221 14.4961 21.1875 14.4961 19.625C14.4961 18.0625 15.0332 16.7441 16.1074 15.6699ZM17.5234 22.2129C18.2396 22.929 19.1022 23.2871 20.1113 23.2871C21.1204 23.2871 21.9831 22.929 22.6992 22.2129C23.4154 21.4967 23.7734 20.6341 23.7734 19.625C23.7734 18.6159 23.4154 17.7533 22.6992 17.0371C21.9831 16.321 21.1204 15.9629 20.1113 15.9629C19.1022 15.9629 18.2396 16.321 17.5234 17.0371C16.8073 17.7533 16.4492 18.6159 16.4492 19.625C16.4492 20.6341 16.8073 21.4967 17.5234 22.2129ZM26.8496 12.8867C27.11 13.1146 27.2402 13.4076 27.2402 13.7656C27.2402 14.1237 27.11 14.4329 26.8496 14.6934C26.6217 14.9538 26.3288 15.084 25.9707 15.084C25.6126 15.084 25.3034 14.9538 25.043 14.6934C24.7826 14.4329 24.6523 14.1237 24.6523 13.7656C24.6523 13.4076 24.7826 13.1146 25.043 12.8867C25.3034 12.6263 25.6126 12.4961 25.9707 12.4961C26.3288 12.4961 26.6217 12.6263 26.8496 12.8867ZM31 15.1328C31.0326 16.0117 31.0488 17.5091 31.0488 19.625C31.0488 21.7409 31.0326 23.2383 31 24.1172C30.9023 26.1029 30.3001 27.6491 29.1934 28.7559C28.1191 29.8301 26.5892 30.3997 24.6035 30.4648C23.7246 30.5299 22.2272 30.5625 20.1113 30.5625C17.9954 30.5625 16.498 30.5299 15.6191 30.4648C13.6335 30.3672 12.1035 29.7812 11.0293 28.707C10.6061 28.3164 10.2643 27.8607 10.0039 27.3398C9.74349 26.819 9.54818 26.3145 9.41797 25.8262C9.32031 25.3379 9.27148 24.7682 9.27148 24.1172C9.20638 23.2383 9.17383 21.7409 9.17383 19.625C9.17383 17.5091 9.20638 15.9954 9.27148 15.084C9.36914 13.1309 9.95508 11.6172 11.0293 10.543C12.1035 9.4362 13.6335 8.83398 15.6191 8.73633C16.498 8.70378 17.9954 8.6875 20.1113 8.6875C22.2272 8.6875 23.7246 8.70378 24.6035 8.73633C26.5892 8.83398 28.1191 9.4362 29.1934 10.543C30.3001 11.6172 30.9023 13.1471 31 15.1328ZM28.6562 26.0703C28.7539 25.8099 28.8353 25.4844 28.9004 25.0938C28.9655 24.6706 29.0143 24.1823 29.0469 23.6289C29.0794 23.043 29.0957 22.571 29.0957 22.2129C29.0957 21.8548 29.0957 21.3503 29.0957 20.6992C29.0957 20.0482 29.0957 19.6901 29.0957 19.625C29.0957 19.5273 29.0957 19.1693 29.0957 18.5508C29.0957 17.8997 29.0957 17.3952 29.0957 17.0371C29.0957 16.679 29.0794 16.2233 29.0469 15.6699C29.0143 15.084 28.9655 14.5957 28.9004 14.2051C28.8353 13.7819 28.7539 13.4401 28.6562 13.1797C28.2656 12.1706 27.5658 11.4707 26.5566 11.0801C26.2962 10.9824 25.9544 10.901 25.5312 10.8359C25.1406 10.7708 24.6523 10.722 24.0664 10.6895C23.513 10.6569 23.0573 10.6406 22.6992 10.6406C22.3737 10.6406 21.8691 10.6406 21.1855 10.6406C20.5345 10.6406 20.1764 10.6406 20.1113 10.6406C20.0462 10.6406 19.6882 10.6406 19.0371 10.6406C18.3861 10.6406 17.8815 10.6406 17.5234 10.6406C17.1654 10.6406 16.6934 10.6569 16.1074 10.6895C15.554 10.722 15.0658 10.7708 14.6426 10.8359C14.252 10.901 13.9264 10.9824 13.666 11.0801C12.6569 11.4707 11.957 12.1706 11.5664 13.1797C11.4688 13.4401 11.3874 13.7819 11.3223 14.2051C11.2572 14.5957 11.2083 15.084 11.1758 15.6699C11.1432 16.2233 11.127 16.679 11.127 17.0371C11.127 17.3626 11.127 17.8672 11.127 18.5508C11.127 19.2018 11.127 19.5599 11.127 19.625C11.127 19.7552 11.127 20.0645 11.127 20.5527C11.127 21.0085 11.127 21.3991 11.127 21.7246C11.127 22.0176 11.127 22.4082 11.127 22.8965C11.1595 23.3848 11.1921 23.8079 11.2246 24.166C11.2572 24.4915 11.306 24.8333 11.3711 25.1914C11.4362 25.5495 11.5013 25.8424 11.5664 26.0703C11.9896 27.0794 12.6895 27.7793 13.666 28.1699C13.9264 28.2676 14.252 28.349 14.6426 28.4141C15.0658 28.4792 15.554 28.528 16.1074 28.5605C16.6934 28.5931 17.1491 28.6094 17.4746 28.6094C17.8327 28.6094 18.3372 28.6094 18.9883 28.6094C19.6719 28.6094 20.0462 28.6094 20.1113 28.6094C20.209 28.6094 20.5671 28.6094 21.1855 28.6094C21.8366 28.6094 22.3411 28.6094 22.6992 28.6094C23.0573 28.6094 23.513 28.5931 24.0664 28.5605C24.6523 28.528 25.1406 28.4792 25.5312 28.4141C25.9544 28.349 26.2962 28.2676 26.5566 28.1699C27.5658 27.7467 28.2656 27.0469 28.6562 26.0703Z" fill="white"/>
</svg>
