<svg width="40" height="40" viewBox="0 0 40 40" fill="none" xmlns="http://www.w3.org/2000/svg">
<rect width="40" height="40" fill="#FCAD15"/>
<path d="M25.998 21.1875H22.3359V32.125H17.4531V21.1875H13.498V16.6465H17.4531V13.2285C17.4531 11.9264 17.6973 10.8197 18.1855 9.9082C18.6738 8.99674 19.3574 8.31315 20.2363 7.85742C21.1478 7.36914 22.1895 7.125 23.3613 7.125C23.8822 7.125 24.4355 7.15755 25.0215 7.22266C25.6074 7.25521 26.0632 7.30404 26.3887 7.36914L26.877 7.41797V11.2754H24.9238C24.0124 11.2754 23.3451 11.5195 22.9219 12.0078C22.5312 12.4635 22.3359 13.0332 22.3359 13.7168V16.6465H26.6816L25.998 21.1875Z" fill="white"/>
</svg>
