<svg width="40" height="40" viewBox="0 0 40 40" fill="none" xmlns="http://www.w3.org/2000/svg">
<rect width="40" height="40" fill="#FCAD15"/>
<path d="M30 11.959L26.6797 27.4863C26.4193 28.5931 25.8171 28.8861 24.873 28.3652L19.8438 24.6543L17.4023 26.998C17.0768 27.3236 16.735 27.4863 16.377 27.4863L16.7676 22.3594L26.0938 13.9609C26.3216 13.7331 26.3216 13.6029 26.0938 13.5703C25.8984 13.5052 25.6868 13.554 25.459 13.7168L13.9355 20.9922L8.95508 19.4297C8.40169 19.2669 8.14128 19.0228 8.17383 18.6973C8.20638 18.3717 8.54818 18.0951 9.19922 17.8672L28.584 10.3477C29.0723 10.1849 29.4629 10.25 29.7559 10.543C30.0488 10.8034 30.1302 11.2754 30 11.959Z" fill="white"/>
</svg>
