<svg width="25" height="25" viewBox="0 0 25 25" fill="none" xmlns="http://www.w3.org/2000/svg">
<path d="M24.1094 2.17188L19.2344 1.04688C18.7188 0.90625 18.1562 1.1875 17.9219 1.70312L15.6719 6.95312C15.4844 7.42188 15.625 7.9375 16 8.26562L18.8594 10.6094C17.1719 14.1719 14.2188 17.1719 10.5625 18.9062L8.21875 16.0469C7.89062 15.6719 7.375 15.5312 6.90625 15.7188L1.65625 17.9688C1.14062 18.2031 0.90625 18.7656 1 19.2812L2.125 24.1562C2.26562 24.6719 2.6875 25 3.25 25C15.25 25 25 15.2969 25 3.25C25 2.73438 24.625 2.3125 24.1094 2.17188Z" fill="white"/>
</svg>
