<svg width="21" height="29" viewBox="0 0 21 29" fill="none" xmlns="http://www.w3.org/2000/svg">
<path d="M9.40625 27.9531C8.53125 26.6771 7.52865 25.237 6.39844 23.6328C5.30469 22.0286 4.52083 20.8984 4.04688 20.2422C3.57292 19.5859 3.02604 18.7839 2.40625 17.8359C1.78646 16.8516 1.36719 16.1589 1.14844 15.7578C0.966146 15.3568 0.747396 14.8464 0.492188 14.2266C0.273438 13.6068 0.127604 13.0781 0.0546875 12.6406C0.0182292 12.1667 0 11.6198 0 11C0 8.08333 1.02083 5.60417 3.0625 3.5625C5.10417 1.52083 7.58333 0.5 10.5 0.5C13.4167 0.5 15.8958 1.52083 17.9375 3.5625C19.9792 5.60417 21 8.08333 21 11C21 11.6198 20.9635 12.1667 20.8906 12.6406C20.8542 13.0781 20.7083 13.6068 20.4531 14.2266C20.2344 14.8464 20.0156 15.3568 19.7969 15.7578C19.6146 16.1589 19.2135 16.8516 18.5938 17.8359C17.974 18.7839 17.4271 19.5859 16.9531 20.2422C16.4792 20.8984 15.6771 22.0286 14.5469 23.6328C13.4531 25.237 12.4688 26.6771 11.5938 27.9531C11.3385 28.3177 10.974 28.5 10.5 28.5C10.026 28.5 9.66146 28.3177 9.40625 27.9531ZM7.38281 14.1172C8.25781 14.9557 9.29688 15.375 10.5 15.375C11.7031 15.375 12.724 14.9557 13.5625 14.1172C14.4375 13.2422 14.875 12.2031 14.875 11C14.875 9.79688 14.4375 8.77604 13.5625 7.9375C12.724 7.0625 11.7031 6.625 10.5 6.625C9.29688 6.625 8.25781 7.0625 7.38281 7.9375C6.54427 8.77604 6.125 9.79688 6.125 11C6.125 12.2031 6.54427 13.2422 7.38281 14.1172Z" fill="white"/>
</svg>
